<svg width="102" height="102" viewBox="0 0 102 102" fill="none" xmlns="http://www.w3.org/2000/svg">
<path fill-rule="evenodd" clip-rule="evenodd" d="M51 94.0312C54.0122 94.0312 56.9129 92.8151 59.0485 90.6444C67.352 82.2087 82.875 66.4322 94.0472 55.0799C99.3544 49.693 102 42.6359 102 35.5756C102 28.5169 99.3544 21.4597 94.0472 16.0729C83.4169 5.26087 66.1567 5.26087 55.5264 16.0729L51 20.6708L46.4736 16.0729C35.8433 5.26087 18.5831 5.26087 7.9528 16.0729C2.64561 21.4597 0 28.5169 0 35.5756C0 42.6359 2.64561 49.693 7.9528 55.0799C19.125 66.4322 34.648 82.2087 42.9515 90.6444C45.0871 92.8151 47.9878 94.0312 51 94.0312ZM85.9827 54.1874H64.2282L58.6979 66.6378C58.1561 67.8411 56.9445 68.5901 55.6217 68.528C54.3148 68.4642 53.1677 67.6004 52.7533 66.3509L45.7884 45.46L42.7604 52.2941C42.2504 53.4463 41.1028 54.1874 39.8438 54.1874H16.0173L47.4938 86.174C48.4182 87.1207 49.6772 87.6562 51 87.6562C52.3228 87.6562 53.5818 87.1207 54.5062 86.174L85.9827 54.1874ZM91.8161 47.8124C94.3502 44.1548 95.625 39.866 95.625 35.5756C95.625 30.1361 93.5849 24.6951 89.5049 20.5449C81.3767 12.2845 68.1965 12.2829 60.0683 20.5449L53.279 27.4507C52.6733 28.0611 51.8606 28.4037 51 28.4037C50.1394 28.4037 49.3267 28.0611 48.721 27.4507C48.721 27.4507 43.9557 22.6057 41.9317 20.5434C33.8035 12.283 20.6233 12.283 12.4951 20.5434C8.41514 24.6935 6.375 30.1361 6.375 35.5756C6.375 39.866 7.64983 44.1548 10.1839 47.8124H37.7718L43.3021 35.362C43.8439 34.1587 45.0555 33.4097 46.3783 33.4719C47.6852 33.5356 48.8323 34.3994 49.2467 35.6489L56.2116 56.5398L59.2396 49.7058C59.7496 48.5535 60.8972 47.8124 62.1562 47.8124H91.8161Z" fill="url(#paint0_linear_307_2420)"/>
<defs>
<linearGradient id="paint0_linear_307_2420" x1="51" y1="7.96387" x2="51" y2="94.0312" gradientUnits="userSpaceOnUse">
<stop stop-color="#155DFC"/>
<stop offset="1" stop-color="#0B3592"/>
</linearGradient>
</defs>
</svg>
