<svg width="49" height="49" viewBox="0 0 49 49" fill="none" xmlns="http://www.w3.org/2000/svg">
<path d="M24.25 0.125C29.9112 0.125 35.2358 2.38324 39.2412 6.4834C43.0453 10.3767 45.2181 15.491 45.4238 20.9619C47.1636 21.7863 48.375 23.5848 48.375 25.6699V31.3584C48.375 33.4349 47.174 35.2251 45.4463 36.0547V38.7383C45.4462 42.7368 42.2672 45.9941 38.3525 45.9941H34.9805C34.4557 47.3984 33.1319 48.3749 31.627 48.375H28.0605C27.1589 48.375 26.307 48.0371 25.6445 47.4209L25.5146 47.2939C24.8355 46.602 24.4609 45.6774 24.4609 44.6943C24.461 43.2633 25.2805 41.9511 26.5527 41.3525C27.0198 41.1298 27.5301 41.0146 28.0605 41.0146H31.627C32.5902 41.0147 33.4952 41.3989 34.1729 42.0957H34.1719C34.5384 42.4693 34.8034 42.9147 34.9795 43.3945H38.3525C40.857 43.3945 42.9003 41.3085 42.9004 38.7383V36.5078C41.2534 36.304 39.9727 34.8831 39.9727 33.1475V23.8818C39.9728 22.1652 41.227 20.755 42.8486 20.5273C42.5392 15.8809 40.6501 11.6062 37.4395 8.32031C33.9136 4.71187 29.2305 2.72461 24.25 2.72461C14.3918 2.72461 6.29603 10.5968 5.64648 20.5264C7.27057 20.7518 8.52813 22.163 8.52832 23.8818V33.1484C8.5282 35.0225 7.03837 36.5518 5.2002 36.5518C2.39861 36.5516 0.125251 34.2197 0.125 31.3604V25.6709C0.125174 23.5847 1.33612 21.7864 3.07617 20.9619C3.51619 9.39939 12.8393 0.125001 24.25 0.125ZM28.0596 43.6162C27.9038 43.6162 27.7575 43.6493 27.625 43.7129H27.624C27.2476 43.8901 27.0068 44.2747 27.0068 44.6963C27.0069 44.9851 27.1168 45.2554 27.3154 45.458V45.459C27.5175 45.6656 27.7804 45.7764 28.0596 45.7764H31.626C32.1182 45.7764 32.5537 45.4183 32.6562 44.9219C32.6706 44.8517 32.6784 44.7741 32.6777 44.6973V44.6963C32.6777 44.4434 32.5937 44.2043 32.4395 44.0127L32.3691 43.9336C32.1681 43.7271 31.9056 43.6162 31.626 43.6162H28.0596ZM5.2002 23.0791C3.80852 23.0791 2.66992 24.2387 2.66992 25.6709V31.3594C2.67007 32.7907 3.80863 33.9502 5.2002 33.9502C5.62871 33.9499 5.98143 33.5926 5.98145 33.1475V23.8818C5.98124 23.4369 5.62859 23.0794 5.2002 23.0791ZM43.2998 23.0791C42.8712 23.0791 42.5178 23.4367 42.5176 23.8818V33.1475C42.5176 33.5934 42.8717 33.9502 43.2998 33.9502C44.6912 33.95 45.829 32.7906 45.8291 31.3594V25.6709C45.8291 24.2396 44.6913 23.0793 43.2998 23.0791Z" fill="url(#paint0_linear_307_2433)" stroke="url(#paint1_linear_307_2433)" stroke-width="0.25"/>
<path d="M31.6865 11.5361L31.9346 11.542C33.1729 11.604 34.3296 12.1292 35.2139 13.0342C36.1567 13.9992 36.6757 15.2806 36.6758 16.6396V26.7852C36.6756 29.5959 34.4407 31.8885 31.6865 31.8887H25.2979L21.0615 36.1982L21.0625 36.1992C20.5924 36.6969 19.9502 36.9648 19.291 36.9648C18.9744 36.9648 18.6549 36.9022 18.3486 36.7764L18.3477 36.7754C17.3967 36.3801 16.7842 35.4439 16.7842 34.3926V31.8877C14.0454 31.8691 11.8283 29.5854 11.8281 26.7852V16.6396C11.8283 13.8279 14.0641 11.5361 16.8184 11.5361H31.6865ZM16.8184 14.1357C15.4736 14.1359 14.3752 15.2562 14.375 16.6396V26.7852C14.3752 28.1678 15.4736 29.2889 16.8184 29.2891H18.0576C18.7639 29.2891 19.3311 29.874 19.3311 30.5889V34.291L23.873 29.668H23.874C24.1123 29.4259 24.4346 29.2891 24.7725 29.2891H31.6865C33.0306 29.2891 34.1307 28.1686 34.1309 26.7852V16.6396C34.1308 16.0559 33.9356 15.502 33.5762 15.0547L33.4121 14.8701C32.9483 14.3963 32.3364 14.1357 31.6865 14.1357H16.8184Z" fill="url(#paint2_linear_307_2433)" stroke="url(#paint3_linear_307_2433)" stroke-width="0.25"/>
<path d="M18.6699 20.041C19.6769 20.041 20.4902 20.8783 20.4902 21.8994C20.4902 22.9207 19.6761 23.7578 18.6699 23.7578C17.6654 23.7576 16.8516 22.9204 16.8516 21.8994C16.8516 20.8785 17.6646 20.0413 18.6699 20.041Z" fill="url(#paint4_linear_307_2433)" stroke="url(#paint5_linear_307_2433)" stroke-width="0.25"/>
<path d="M24.2402 20.041C25.2472 20.041 26.0605 20.8783 26.0605 21.8994C26.0605 22.9206 25.2472 23.7578 24.2402 23.7578C23.2357 23.7576 22.4219 22.9204 22.4219 21.8994C22.4219 20.8785 23.2349 20.0413 24.2402 20.041Z" fill="url(#paint6_linear_307_2433)" stroke="url(#paint7_linear_307_2433)" stroke-width="0.25"/>
<path d="M29.8262 20.041C30.8323 20.041 31.6464 20.8782 31.6465 21.8994C31.6465 22.9207 30.8324 23.7578 29.8262 23.7578C28.8216 23.7576 28.0078 22.9204 28.0078 21.8994C28.0079 20.8785 28.8209 20.0413 29.8262 20.041Z" fill="url(#paint8_linear_307_2433)" stroke="url(#paint9_linear_307_2433)" stroke-width="0.25"/>
<defs>
<linearGradient id="paint0_linear_307_2433" x1="24.25" y1="0.25" x2="24.25" y2="48.25" gradientUnits="userSpaceOnUse">
<stop stop-color="#155DFC"/>
<stop offset="1" stop-color="#03102C"/>
</linearGradient>
<linearGradient id="paint1_linear_307_2433" x1="24.25" y1="0.25" x2="24.25" y2="48.25" gradientUnits="userSpaceOnUse">
<stop stop-color="#155DFC"/>
<stop offset="1" stop-color="#03102C"/>
</linearGradient>
<linearGradient id="paint2_linear_307_2433" x1="24.252" y1="11.6611" x2="24.252" y2="36.8396" gradientUnits="userSpaceOnUse">
<stop stop-color="#155DFC"/>
<stop offset="1" stop-color="#03102C"/>
</linearGradient>
<linearGradient id="paint3_linear_307_2433" x1="24.252" y1="11.6611" x2="24.252" y2="36.8396" gradientUnits="userSpaceOnUse">
<stop stop-color="#155DFC"/>
<stop offset="1" stop-color="#03102C"/>
</linearGradient>
<linearGradient id="paint4_linear_307_2433" x1="18.6711" y1="20.166" x2="18.6711" y2="23.633" gradientUnits="userSpaceOnUse">
<stop stop-color="#155DFC"/>
<stop offset="1" stop-color="#03102C"/>
</linearGradient>
<linearGradient id="paint5_linear_307_2433" x1="18.6711" y1="20.166" x2="18.6711" y2="23.633" gradientUnits="userSpaceOnUse">
<stop stop-color="#155DFC"/>
<stop offset="1" stop-color="#03102C"/>
</linearGradient>
<linearGradient id="paint6_linear_307_2433" x1="24.2414" y1="20.166" x2="24.2414" y2="23.633" gradientUnits="userSpaceOnUse">
<stop stop-color="#155DFC"/>
<stop offset="1" stop-color="#03102C"/>
</linearGradient>
<linearGradient id="paint7_linear_307_2433" x1="24.2414" y1="20.166" x2="24.2414" y2="23.633" gradientUnits="userSpaceOnUse">
<stop stop-color="#155DFC"/>
<stop offset="1" stop-color="#03102C"/>
</linearGradient>
<linearGradient id="paint8_linear_307_2433" x1="29.8274" y1="20.166" x2="29.8274" y2="23.633" gradientUnits="userSpaceOnUse">
<stop stop-color="#155DFC"/>
<stop offset="1" stop-color="#03102C"/>
</linearGradient>
<linearGradient id="paint9_linear_307_2433" x1="29.8274" y1="20.166" x2="29.8274" y2="23.633" gradientUnits="userSpaceOnUse">
<stop stop-color="#155DFC"/>
<stop offset="1" stop-color="#03102C"/>
</linearGradient>
</defs>
</svg>
