<svg width="49" height="49" viewBox="0 0 49 49" fill="none" xmlns="http://www.w3.org/2000/svg">
<path d="M24.1719 48.1719C37.4267 48.1719 48.1719 37.4267 48.1719 24.1719C48.1719 10.917 37.4267 0.171875 24.1719 0.171875C10.917 0.171875 0.171875 10.917 0.171875 24.1719C0.171875 37.4267 10.917 48.1719 24.1719 48.1719Z" fill="#155DFC" stroke="#155DFC" stroke-width="0.34418" stroke-miterlimit="10"/>
<path d="M37.3399 11.1066V37.2372C37.3399 37.2639 37.3293 37.2896 37.3104 37.3085C37.2915 37.3274 37.2659 37.338 37.2392 37.338H30.1809C30.1542 37.338 30.1286 37.3274 30.1097 37.3085C30.0908 37.2896 30.0802 37.2639 30.0802 37.2372V34.7223C30.0802 34.6956 30.0908 34.6699 30.1097 34.651C30.1286 34.6321 30.1542 34.6215 30.1809 34.6215H33.6093C33.636 34.6215 33.6616 34.6109 33.6805 34.592C33.6994 34.5731 33.71 34.5475 33.71 34.5207V13.8279C33.71 13.8011 33.6994 13.7755 33.6805 13.7566C33.6616 13.7377 33.636 13.7271 33.6093 13.7271H31.5241C31.5016 13.7271 31.4798 13.7346 31.4621 13.7484C31.4444 13.7622 31.4318 13.7815 31.4264 13.8033L31.2172 14.6357L30.9888 15.5444L30.7605 16.4531L30.5321 17.3617L30.3085 18.2704L30.0801 19.1791L29.8518 20.0877L29.6234 20.9964L29.3951 21.905L29.1667 22.8137L28.9384 23.7224L28.71 24.631L28.4864 25.5397L28.2581 26.4483L28.0297 27.357L27.8013 28.2656L27.573 29.1743L27.3446 30.083L27.121 30.9869L26.8927 31.8955L26.6643 32.8042L26.4359 33.7129L26.2076 34.6215L25.9792 35.5302L25.7509 36.4388L25.5368 37.2999L25.5273 37.338H22.8252L22.8156 37.2999L22.6015 36.4388L22.3732 35.5302L22.1448 34.6215L21.9165 33.7129L21.6881 32.8042L21.4598 31.8955L21.2314 30.9869L21.0078 30.083L20.7794 29.1743L20.5511 28.2656L20.3227 27.357L20.0944 26.4483L19.866 25.5397L19.6425 24.631L19.4141 23.7223L19.1858 22.8137L18.9574 21.905L18.729 20.9963L18.5007 20.0877L18.2723 19.179L18.044 18.2704L17.8204 17.3617L17.592 16.4531L17.3637 15.5444L17.1353 14.6357L16.9261 13.8033C16.9206 13.7815 16.9081 13.7622 16.8903 13.7484C16.8726 13.7346 16.8508 13.7271 16.8284 13.7271H14.7432C14.73 13.7271 14.7169 13.7297 14.7047 13.7348C14.6924 13.7398 14.6813 13.7473 14.672 13.7566C14.6626 13.766 14.6552 13.7771 14.6501 13.7893C14.6451 13.8015 14.6424 13.8146 14.6424 13.8279V34.5207C14.6424 34.5475 14.6531 34.5731 14.672 34.592C14.6909 34.6109 14.7165 34.6215 14.7432 34.6215H18.1716C18.1983 34.6215 18.2239 34.6321 18.2428 34.651C18.2617 34.6699 18.2723 34.6955 18.2723 34.7223V37.2372C18.2723 37.2639 18.2617 37.2896 18.2428 37.3085C18.2239 37.3274 18.1983 37.338 18.1716 37.338H11.1086C11.0819 37.338 11.0562 37.3274 11.0373 37.3085C11.0184 37.2896 11.0078 37.2639 11.0078 37.2372V11.1066C11.0078 11.0799 11.0184 11.0543 11.0373 11.0354C11.0562 11.0165 11.0819 11.0059 11.1086 11.0059H18.2628L18.2723 11.0487L18.4864 11.9098L18.7148 12.8184L18.9431 13.7271L19.1715 14.6357L19.3999 15.5444L19.6282 16.4531L19.8566 17.3617L20.0802 18.2704L20.3085 19.1791L20.5369 20.0877L20.9936 21.905L21.2219 22.8137L21.4503 23.7224L21.6787 24.631L21.9022 25.5397H21.907L22.1306 26.4483L22.3589 27.357L22.5873 28.2656L23.044 30.083L23.2676 30.9869L23.496 31.8955L23.7243 32.8042L23.9527 33.7129L24.1763 34.6025L24.3999 33.7129L24.6282 32.8042L24.8566 31.8955L25.0849 30.9869L25.3085 30.083L25.7652 28.2656L25.9936 27.357L26.222 26.4483L26.4455 25.5397H26.4503L26.6739 24.631L26.9023 23.7224L27.1306 22.8137L27.359 21.905L27.8157 20.0877L28.0441 19.1791L28.2724 18.2704L28.4959 17.3617L28.7243 16.4531L28.9527 15.5444L29.181 14.6357L29.4094 13.7271L29.6377 12.8184L29.8661 11.9098L30.0802 11.0487L30.0897 11.0059H37.2392C37.2659 11.0059 37.2915 11.0165 37.3104 11.0354C37.3293 11.0543 37.3399 11.0799 37.3399 11.1066Z" fill="white"/>
</svg>
