<svg width="50" height="50" viewBox="0 0 50 50" fill="none" xmlns="http://www.w3.org/2000/svg">
<g clip-path="url(#clip0_307_2586)">
<path d="M0.208984 24.693C0.207617 29.0452 1.35352 33.2938 3.53203 37.0388L0 49.8347L13.1975 46.4012C16.8338 48.3684 20.9279 49.4056 25.0939 49.4072H25.1047C38.825 49.4072 49.9941 38.3281 50 24.7128C50.0023 18.1143 47.4148 11.9095 42.7148 7.24186C38.0143 2.57481 31.7643 0.00271318 25.1047 0C11.382 0 0.214453 11.0775 0.208984 24.693ZM8.06855 36.3938L7.57578 35.6176C5.5043 32.3494 4.41094 28.5727 4.4125 24.6946C4.4168 13.3777 13.6988 4.17054 25.1125 4.17054C30.6398 4.17287 35.8344 6.31085 39.7414 10.1899C43.6482 14.0694 45.798 19.2264 45.7967 24.7112C45.7916 36.0281 36.5094 45.2364 25.1047 45.2364H25.0965C21.383 45.2345 17.741 44.245 14.5648 42.375L13.809 41.9302L5.97734 43.9676L8.06855 36.3938Z" fill="url(#paint0_linear_307_2586)"/>
<path d="M3.18338 24.3063C3.18231 28.0611 4.19074 31.7274 6.10825 34.9589L3 46L14.614 43.0373C17.8263 44.7386 21.4254 45.6301 25.0829 45.6304H25.0925C37.1664 45.6304 46.9948 36.0718 47 24.3231C47.0023 18.63 44.7255 13.2766 40.5889 9.24894C36.453 5.22167 30.9524 3.0026 25.0916 3C13.0163 3 3.18855 12.5581 3.18356 24.3063" fill="url(#paint1_linear_307_2586)"/>
<path d="M18.8809 14.3214C18.4148 13.2971 17.9244 13.2764 17.4812 13.2585C17.1184 13.243 16.7035 13.2442 16.2891 13.2442C15.8742 13.2442 15.2002 13.3985 14.6305 14.0137C14.0602 14.6295 12.4531 16.1176 12.4531 19.1442C12.4531 22.1708 14.6822 25.0959 14.993 25.5068C15.3041 25.9169 19.2963 32.3266 25.6189 34.7924C30.8736 36.8417 31.943 36.4341 33.0834 36.3313C34.224 36.229 36.7639 34.8436 37.282 33.4071C37.8006 31.9708 37.8006 30.7396 37.6451 30.4823C37.4896 30.226 37.0748 30.0721 36.4527 29.7646C35.8307 29.457 32.7723 27.9686 32.2021 27.7632C31.6318 27.5581 31.2172 27.4557 30.8023 28.0717C30.3875 28.6867 29.1963 30.0721 28.8332 30.4823C28.4705 30.8936 28.1074 30.9447 27.4855 30.637C26.8631 30.3284 24.8598 29.6796 22.483 27.584C20.6338 25.9534 19.3854 23.9397 19.0225 23.3237C18.6596 22.7087 18.9836 22.3753 19.2955 22.0688C19.575 21.7931 19.9178 21.3504 20.2291 20.9913C20.5393 20.6321 20.6428 20.3757 20.8502 19.9655C21.0578 19.5548 20.9539 19.1955 20.7986 18.8878C20.6428 18.5801 19.434 15.5377 18.8809 14.3214Z" fill="white"/>
</g>
<defs>
<linearGradient id="paint0_linear_307_2586" x1="2500" y1="4983.47" x2="2500" y2="0" gradientUnits="userSpaceOnUse">
<stop stop-color="#F9F9F9"/>
<stop offset="1" stop-color="white"/>
</linearGradient>
<linearGradient id="paint1_linear_307_2586" x1="2203" y1="4303" x2="2203" y2="3" gradientUnits="userSpaceOnUse">
<stop stop-color="#1FAF38"/>
<stop offset="1" stop-color="#60D669"/>
</linearGradient>
<clipPath id="clip0_307_2586">
<rect width="50" height="49.8347" fill="white"/>
</clipPath>
</defs>
</svg>
