<svg width="48" height="48" viewBox="0 0 48 48" fill="none" xmlns="http://www.w3.org/2000/svg">
<rect x="0.5" y="0.5" width="47" height="47" rx="23.5" fill="#FAFAFA"/>
<rect x="0.5" y="0.5" width="47" height="47" rx="23.5" stroke="#FAFAFA"/>
<g clip-path="url(#clip0_307_2194)">
<path d="M24.5 19.7215C24.6354 18.0954 25.1599 16.4697 25.4453 15.68C25.5541 15.3792 25.8411 15.1892 26.1577 15.2328C27.0416 15.3543 28.8937 15.8028 30.5456 17.4542C32.197 19.106 32.6455 20.9581 32.767 21.842C32.8105 22.1586 32.6205 22.4456 32.3197 22.5545C31.53 22.8403 29.9043 23.3644 28.2782 23.4997C28.2782 23.4997 27.9006 22.3665 26.7669 21.2328C25.6333 20.0991 24.5 19.7215 24.5 19.7215Z" stroke="#155DFC" stroke-width="1.5" stroke-linecap="round" stroke-linejoin="round"/>
<path d="M21.3334 26.6659L16.5834 31.4159M28.2862 23.4842C28.2862 23.4842 27.9094 22.3525 26.7781 21.2212C25.646 20.0895 24.5147 19.7127 24.5147 19.7127L24.5147 19.7119C22.4405 19.8156 20.8231 20.0333 19.7869 20.2083C18.9706 20.3464 18.3266 20.9493 18.0935 21.7437C16.5418 27.0281 16.2176 30.2724 16.2176 30.2724C16.2176 30.2724 16.0292 30.838 16.5949 31.4036C17.1609 31.9697 17.7261 31.7809 17.7261 31.7809C17.7261 31.7809 20.9704 31.4563 26.2548 29.905C27.0492 29.6715 27.6521 29.0282 27.7902 28.2116C27.9652 27.1757 28.1825 25.558 28.2862 23.4842Z" stroke="#155DFC" stroke-width="1.5" stroke-linecap="round" stroke-linejoin="round"/>
<path d="M20.9375 25.4788C20.9375 25.8988 21.1043 26.3015 21.4012 26.5984C21.6982 26.8954 22.1009 27.0622 22.5208 27.0622C22.9408 27.0622 23.3435 26.8954 23.6404 26.5984C23.9374 26.3015 24.1042 25.8988 24.1042 25.4788C24.1042 25.0589 23.9374 24.6562 23.6404 24.3593C23.3435 24.0623 22.9408 23.8955 22.5208 23.8955C22.1009 23.8955 21.6982 24.0623 21.4012 24.3593C21.1043 24.6562 20.9375 25.0589 20.9375 25.4788Z" stroke="#155DFC" stroke-width="1.5" stroke-linecap="round" stroke-linejoin="round"/>
</g>
<defs>
<clipPath id="clip0_307_2194">
<rect width="19" height="19" fill="white" transform="translate(15 14)"/>
</clipPath>
</defs>
</svg>
