<svg width="48" height="48" viewBox="0 0 48 48" fill="none" xmlns="http://www.w3.org/2000/svg">
<rect x="0.5" y="0.5" width="47" height="47" rx="23.5" fill="#FAFAFA"/>
<rect x="0.5" y="0.5" width="47" height="47" rx="23.5" stroke="#FAFAFA"/>
<path fill-rule="evenodd" clip-rule="evenodd" d="M26 19C25.7348 19 25.4804 19.1054 25.2929 19.2929C25.1054 19.4804 25 19.7348 25 20L25 28C25 28.2652 25.1054 28.5196 25.2929 28.7071C25.4804 28.8946 25.7348 29 26 29L30 29C30.2652 29 30.5196 28.8946 30.7071 28.7071C30.8946 28.5196 31 28.2652 31 28L31 20C31 19.7348 30.8946 19.4804 30.7071 19.2929C30.5196 19.1054 30.2652 19 30 19L26 19ZM29 21L27 21L27 27L29 27L29 21Z" fill="#155DFC"/>
<path d="M18 19C17.7348 19 17.4804 19.1054 17.2929 19.2929C17.1054 19.4804 17 19.7348 17 20C17 20.2652 17.1054 20.5196 17.2929 20.7071C17.4804 20.8946 17.7348 21 18 21L22 21C22.2652 21 22.5196 20.8946 22.7071 20.7071C22.8946 20.5196 23 20.2652 23 20C23 19.7348 22.8946 19.4804 22.7071 19.2929C22.5196 19.1054 22.2652 19 22 19L18 19ZM18 23C17.7348 23 17.4804 23.1054 17.2929 23.2929C17.1054 23.4804 17 23.7348 17 24C17 24.2652 17.1054 24.5196 17.2929 24.7071C17.4804 24.8946 17.7348 25 18 25L22 25C22.2652 25 22.5196 24.8946 22.7071 24.7071C22.8946 24.5196 23 24.2652 23 24C23 23.7348 22.8946 23.4804 22.7071 23.2929C22.5196 23.1054 22.2652 23 22 23L18 23ZM17 28C17 27.7348 17.1054 27.4804 17.2929 27.2929C17.4804 27.1054 17.7348 27 18 27L22 27C22.2652 27 22.5196 27.1054 22.7071 27.2929C22.8946 27.4804 23 27.7348 23 28C23 28.2652 22.8946 28.5196 22.7071 28.7071C22.5196 28.8946 22.2652 29 22 29L18 29C17.7348 29 17.4804 28.8946 17.2929 28.7071C17.1054 28.5196 17 28.2652 17 28Z" fill="#155DFC"/>
<path fill-rule="evenodd" clip-rule="evenodd" d="M16 15C15.2044 15 14.4413 15.3161 13.8787 15.8787C13.3161 16.4413 13 17.2044 13 18L13 30C13 30.7956 13.3161 31.5587 13.8787 32.1213C14.4413 32.6839 15.2044 33 16 33L32 33C32.7956 33 33.5587 32.6839 34.1213 32.1213C34.6839 31.5587 35 30.7956 35 30L35 18C35 17.2044 34.6839 16.4413 34.1213 15.8787C33.5587 15.3161 32.7956 15 32 15L16 15ZM32 17L16 17C15.7348 17 15.4804 17.1054 15.2929 17.2929C15.1054 17.4804 15 17.7348 15 18L15 30C15 30.2652 15.1054 30.5196 15.2929 30.7071C15.4804 30.8946 15.7348 31 16 31L32 31C32.2652 31 32.5196 30.8946 32.7071 30.7071C32.8946 30.5196 33 30.2652 33 30L33 18C33 17.7348 32.8946 17.4804 32.7071 17.2929C32.5196 17.1054 32.2652 17 32 17Z" fill="#155DFC"/>
</svg>
