<svg width="48" height="48" viewBox="0 0 48 48" fill="none" xmlns="http://www.w3.org/2000/svg">
<rect x="0.5" y="0.5" width="47" height="47" rx="23.5" fill="#FAFAFA"/>
<rect x="0.5" y="0.5" width="47" height="47" rx="23.5" stroke="#FAFAFA"/>
<path d="M19.6641 15C17.8075 15 16.0271 15.7375 14.7143 17.0503C13.4016 18.363 12.6641 20.1435 12.6641 22C12.6641 23.8565 13.4016 25.637 14.7143 26.9497C16.0271 28.2625 17.8075 29 19.6641 29H20.7341C20.6383 28.3368 20.6383 27.6632 20.7341 27H19.6641C18.338 27 17.0662 26.4732 16.1285 25.5355C15.1908 24.5979 14.6641 23.3261 14.6641 22C14.6641 20.6739 15.1908 19.4021 16.1285 18.4645C17.0662 17.5268 18.338 17 19.6641 17H27.6641C28.4056 16.9998 29.1378 17.1646 29.8078 17.4824C30.4778 17.8002 31.0687 18.263 31.5377 18.8373C32.0068 19.4117 32.3422 20.0831 32.5197 20.8031C32.6972 21.523 32.7124 22.2735 32.5641 23C33.1536 23.5774 33.6363 24.2545 33.9901 25C34.4962 23.9329 34.7242 22.7551 34.6527 21.5763C34.5812 20.3974 34.2126 19.2558 33.5812 18.2577C32.9498 17.2596 32.0762 16.4375 31.0416 15.8679C30.007 15.2983 28.8451 14.9998 27.6641 15H19.6641ZM27.6641 25C26.8684 25 26.1053 25.3161 25.5427 25.8787C24.9801 26.4413 24.6641 27.2043 24.6641 28C24.6641 28.7956 24.9801 29.5587 25.5427 30.1213C26.1053 30.6839 26.8684 31 27.6641 31C28.4597 31 29.2228 30.6839 29.7854 30.1213C30.348 29.5587 30.6641 28.7956 30.6641 28C30.6641 27.2043 30.348 26.4413 29.7854 25.8787C29.2228 25.3161 28.4597 25 27.6641 25ZM22.6641 28C22.6642 27.2204 22.8467 26.4517 23.1969 25.7552C23.5471 25.0587 24.0553 24.4537 24.681 23.9886C25.3066 23.5235 26.0323 23.2111 26.8002 23.0764C27.5681 22.9417 28.3568 22.9884 29.1034 23.2128C29.85 23.4373 30.5337 23.8331 31.1001 24.3689C31.6664 24.9046 32.0997 25.5654 32.3652 26.2984C32.6307 27.0313 32.7211 27.8162 32.6292 28.5904C32.5374 29.3646 32.2657 30.1065 31.8361 30.757L34.3711 33.293L32.9571 34.707L30.4211 32.172C29.6674 32.6701 28.7929 32.9548 27.8904 32.9957C26.988 33.0366 26.0913 32.8322 25.2957 32.4043C24.5001 31.9764 23.8353 31.3409 23.3719 30.5654C22.9085 29.7899 22.6639 28.9034 22.6641 28Z" fill="#155DFC"/>
</svg>
