<svg width="48" height="48" viewBox="0 0 48 48" fill="none" xmlns="http://www.w3.org/2000/svg">
<rect x="0.5" y="0.5" width="47" height="47" rx="23.5" fill="#FAFAFA"/>
<rect x="0.5" y="0.5" width="47" height="47" rx="23.5" stroke="#FAFAFA"/>
<path d="M17 16.9996C16.9999 16.6477 17.0926 16.302 17.2689 15.9974C17.4451 15.6928 17.6986 15.4401 18.0038 15.2648C18.3089 15.0895 18.6549 14.9978 19.0068 14.999C19.3587 15.0002 19.7041 15.0943 20.008 15.2716L32.005 22.2696C32.3078 22.4453 32.5591 22.6974 32.7339 23.0006C32.9088 23.3039 33.0009 23.6477 33.0012 23.9978C33.0015 24.3478 32.91 24.6918 32.7357 24.9953C32.5614 25.2989 32.3105 25.5514 32.008 25.7276L20.008 32.7276C19.7041 32.905 19.3587 32.999 19.0068 33.0002C18.6549 33.0014 18.3089 32.9097 18.0038 32.7344C17.6986 32.5591 17.4451 32.3064 17.2689 32.0018C17.0926 31.6972 16.9999 31.3515 17 30.9996V16.9996Z" stroke="#155DFC" stroke-width="2" stroke-linecap="round" stroke-linejoin="round"/>
</svg>
