<svg width="48" height="48" viewBox="0 0 48 48" fill="none" xmlns="http://www.w3.org/2000/svg">
<rect x="0.5" y="0.5" width="47" height="47" rx="23.5" fill="#FAFAFA"/>
<rect x="0.5" y="0.5" width="47" height="47" rx="23.5" stroke="#FAFAFA"/>
<g clip-path="url(#clip0_307_2246)">
<path d="M31.7656 24.6923V23.4067H36V24.6923H31.7656ZM33.188 33L29.7991 30.5072L30.6158 29.489L34.0047 31.9805L33.188 33ZM30.5149 18.511L29.6982 17.4928L33.087 15L33.9038 16.0195L30.5149 18.511ZM15.4793 31.7144V26.8187H14.1185C13.5321 26.8187 13.0322 26.6165 12.6188 26.2119C12.2054 25.8074 11.9991 25.3175 12 24.7424V23.3578C12 22.7827 12.2063 22.2925 12.6188 21.8871C13.0313 21.4817 13.5308 21.2794 14.1172 21.2803H19.0085L24.2025 18.2642V29.8348L19.0085 26.8187H16.7903V31.7144H15.4793ZM22.8916 27.5451V20.5539L19.3769 22.5659H14.1172C13.9162 22.5659 13.7314 22.6486 13.5627 22.814C13.394 22.9794 13.3101 23.1607 13.311 23.3578V24.7424C13.311 24.9396 13.3949 25.1208 13.5627 25.2863C13.7305 25.4517 13.9153 25.534 14.1172 25.5331H19.3769L22.8916 27.5451ZM26.5217 27.7637V20.3366C26.9604 20.7352 27.3139 21.2588 27.5822 21.9076C27.8506 22.5565 27.9843 23.2704 27.9834 24.0495C27.9825 24.8286 27.8488 25.5425 27.5822 26.1913C27.3157 26.8402 26.9621 27.3651 26.5217 27.7637Z" fill="#155DFC"/>
</g>
<defs>
<clipPath id="clip0_307_2246">
<rect width="24" height="24" fill="white" transform="translate(12 12)"/>
</clipPath>
</defs>
</svg>
