<svg width="48" height="48" viewBox="0 0 48 48" fill="none" xmlns="http://www.w3.org/2000/svg">
<rect x="0.5" y="0.5" width="47" height="47" rx="23.5" fill="#FAFAFA"/>
<rect x="0.5" y="0.5" width="47" height="47" rx="23.5" stroke="#FAFAFA"/>
<path d="M28.75 14C29.612 14 30.4386 14.3424 31.0481 14.9519C31.6576 15.5614 32 16.388 32 17.25V30.75C32 31.1768 31.9159 31.5994 31.7526 31.9937C31.5893 32.388 31.3499 32.7463 31.0481 33.0481C30.7463 33.3499 30.388 33.5893 29.9937 33.7526C29.5994 33.9159 29.1768 34 28.75 34H19.25C18.8232 34 18.4006 33.9159 18.0063 33.7526C17.612 33.5893 17.2537 33.3499 16.9519 33.0481C16.6501 32.7463 16.4107 32.388 16.2474 31.9937C16.0841 31.5994 16 31.1768 16 30.75V17.25C16 16.388 16.3424 15.5614 16.9519 14.9519C17.5614 14.3424 18.388 14 19.25 14H28.75ZM19.25 15.5C18.7859 15.5 18.3408 15.6844 18.0126 16.0126C17.6844 16.3408 17.5 16.7859 17.5 17.25V30.75C17.5 31.716 18.284 32.5 19.25 32.5H28.75C29.2141 32.5 29.6592 32.3156 29.9874 31.9874C30.3156 31.6592 30.5 31.2141 30.5 30.75V17.25C30.5 16.7859 30.3156 16.3408 29.9874 16.0126C29.6592 15.6844 29.2141 15.5 28.75 15.5H19.25ZM21 21.756C21 20.57 22.311 19.853 23.31 20.493L26.812 22.74C27.0238 22.8757 27.1981 23.0625 27.3188 23.2832C27.4395 23.5039 27.5028 23.7514 27.5028 24.003C27.5028 24.2546 27.4395 24.5021 27.3188 24.7228C27.1981 24.9435 27.0238 25.1303 26.812 25.266L23.31 27.513C22.312 28.153 21 27.437 21 26.251V21.756Z" fill="#155DFC"/>
</svg>
